<svg width="240" height="38" viewBox="0 0 240 38" fill="none" xmlns="http://www.w3.org/2000/svg">
<path d="M19.4384 0L23.6953 13.1287H37.4709L26.3262 21.2426L30.5831 34.3713L19.4384 26.2574L8.2937 34.3713L12.5506 21.2426L1.4059 13.1287H15.1815L19.4384 0Z" fill="#F5C957"/>
<path d="M69.3345 0L73.5914 13.1287H87.367L76.2223 21.2426L80.4792 34.3713L69.3345 26.2574L58.1898 34.3713L62.4467 21.2426L51.302 13.1287H65.0776L69.3345 0Z" fill="#F5C957"/>
<path d="M120.228 0L124.485 13.1287H138.261L127.116 21.2426L131.373 34.3713L120.228 26.2574L109.084 34.3713L113.341 21.2426L102.196 13.1287H115.972L120.228 0Z" fill="#F5C957"/>
<path d="M170.125 0L174.381 13.1287H188.157L177.012 21.2426L181.269 34.3713L170.125 26.2574L158.98 34.3713L163.237 21.2426L152.092 13.1287H165.868L170.125 0Z" fill="#F5C957"/>
<path d="M221.018 0L225.275 13.1287H239.051L227.906 21.2426L232.163 34.3713L221.018 26.2574L209.874 34.3713L214.131 21.2426L202.986 13.1287H216.762L221.018 0Z" fill="#F5C957"/>
</svg>
